<svg width="114" height="142" viewBox="0 0 114 142" fill="none" xmlns="http://www.w3.org/2000/svg">
<path d="M64.201 22.7811H64.5539L64.8698 22.6237C74.0893 18.0315 84.1614 15.6621 94.42 15.6621C99.4414 15.6621 103.969 17.6886 107.273 20.9805C110.578 24.2721 112.601 28.8072 112.496 33.7453L112.496 33.7612V33.7771C112.496 43.9975 110.154 54.0286 105.547 63.2082L105.388 63.5258V63.8811V134.881C105.388 138.013 102.844 140.5 99.7416 140.5H7.10811C4.01598 140.5 1.5 138.023 1.5 134.881V28.3621C1.5 25.2957 4.01598 22.7811 7.10811 22.7811H14.2542H15.7542V21.2811V14.2V12.7H14.2542H8.64612V3.55947C8.64612 2.42421 9.56562 1.5 10.7192 1.5H39.2276C40.3812 1.5 41.3007 2.42421 41.3007 3.55947V12.7H35.6926H34.1926V14.2V21.2811V22.7811H35.6926H64.201ZM91.6508 61.6115L93.1598 63.1146L94.0667 61.1875L92.7095 60.5488C94.0667 61.1875 94.0668 61.1873 94.067 61.187L94.0674 61.1861L94.0687 61.1832L94.0733 61.1733L94.0902 61.1372C94.1047 61.106 94.1258 61.0604 94.153 61.0011C94.2074 60.8825 94.2864 60.709 94.3863 60.485C94.5862 60.0372 94.8702 59.3876 95.2103 58.5731C95.8901 56.9449 96.796 54.6527 97.7024 51.9918C99.5028 46.7066 101.356 39.8238 101.356 33.7771C101.356 29.8868 98.1929 27.0505 94.4955 26.864L94.487 26.8636L94.4784 26.8633C88.8427 26.6435 81.9002 28.5059 76.4944 30.3454C73.7643 31.2743 71.3749 32.2157 69.6676 32.9249C68.8134 33.2798 68.1285 33.5771 67.6555 33.7865C67.4189 33.8912 67.2353 33.9739 67.1098 34.031C67.0471 34.0595 66.9989 34.0816 66.9659 34.0967L66.9279 34.1143L66.9176 34.1191L66.9146 34.1204L66.9137 34.1209C66.9134 34.121 66.9131 34.1211 67.546 35.4811L66.9131 34.1211L64.9654 35.0275L66.4874 36.5437L91.6508 61.6115Z" stroke="white" stroke-width="3"/>
</svg>